<?xml version="1.0" standalone="no"?>
<!DOCTYPE svg PUBLIC "-//W3C//DTD SVG 20010904//EN"
 "http://www.w3.org/TR/2001/REC-SVG-20010904/DTD/svg10.dtd">
<svg version="1.0" xmlns="http://www.w3.org/2000/svg"
 width="850.000000pt" height="850.000000pt" viewBox="0 0 850.000000 850.000000"
 preserveAspectRatio="xMidYMid meet">
<metadata>
Created by potrace 1.14, written by Peter Selinger 2001-2017
</metadata>
<g transform="translate(0.000000,850.000000) scale(0.100000,-0.100000)"
fill="#000000" stroke="none">
<path d="M0 4250 l0 -4250 4250 0 4250 0 0 4250 0 4250 -4250 0 -4250 0 0
-4250z m1348 488 c18 -11 44 -35 59 -54 l26 -35 -61 -127 c-129 -271 -213
-492 -243 -639 -7 -35 -18 -63 -25 -63 -18 0 -75 42 -97 72 l-20 27 73 183
c125 317 161 420 186 528 13 58 24 113 24 123 0 22 25 17 78 -15z m475 -5 c15
-16 33 -36 40 -45 11 -16 18 -15 94 12 171 61 381 77 474 36 52 -22 99 -65
115 -103 21 -49 18 -139 -6 -189 -39 -81 -157 -164 -252 -180 -24 -4 -38 -12
-38 -22 0 -22 83 -193 120 -249 18 -26 47 -63 63 -80 l31 -33 -24 -25 c-12
-13 -39 -30 -58 -36 -29 -10 -38 -9 -61 8 -38 27 -84 129 -128 283 -39 133
-40 135 -72 141 -31 7 -33 5 -53 -40 -45 -103 -80 -201 -104 -291 -15 -52 -28
-97 -29 -98 -10 -11 -80 36 -100 66 -24 35 -24 35 -6 71 66 129 261 613 261
648 0 16 -63 -7 -122 -44 -21 -13 -42 -23 -47 -23 -6 0 -22 20 -37 45 -14 25
-30 45 -35 45 -15 0 -151 -70 -198 -103 -86 -59 -230 -202 -262 -259 -19 -35
130 -283 211 -351 16 -14 30 -28 30 -31 0 -3 -17 -17 -37 -31 -54 -36 -106
-34 -143 5 -31 33 -92 180 -136 327 l-27 93 47 69 c119 171 290 356 366 393
52 26 92 23 123 -9z m1807 -9 l85 -29 3 -47 c3 -49 -18 -105 -43 -114 -7 -3
-34 11 -59 30 -26 20 -76 45 -112 56 -166 51 -368 -2 -324 -85 20 -37 115 -99
252 -164 153 -73 199 -106 228 -166 19 -39 22 -58 18 -118 -8 -116 -56 -188
-155 -234 -196 -91 -591 80 -557 241 7 34 44 106 54 106 4 0 15 -18 25 -40 48
-107 214 -190 380 -190 85 0 148 27 182 79 50 75 26 100 -204 212 -202 97
-252 131 -277 183 -33 69 -14 170 42 229 61 64 137 88 272 84 85 -3 121 -9
190 -33z m1557 -3 c13 -19 23 -39 23 -46 0 -9 -38 -14 -132 -18 -73 -2 -145
-10 -161 -16 -22 -8 -37 -31 -73 -108 -24 -53 -47 -108 -51 -121 -5 -22 -3
-24 23 -18 16 3 55 7 87 7 46 1 63 -3 77 -17 20 -22 32 -64 22 -80 -4 -6 -56
-14 -122 -17 -63 -4 -124 -9 -135 -12 -15 -5 -32 -35 -62 -114 -47 -120 -79
-228 -71 -236 3 -3 57 3 119 14 63 11 148 23 189 26 75 7 76 7 88 -19 7 -15
12 -42 12 -61 l0 -35 -114 0 c-63 0 -167 -7 -231 -15 -133 -18 -151 -13 -195
51 l-23 35 28 67 c15 37 47 115 70 173 l42 106 -33 27 c-19 15 -34 31 -34 35
0 4 23 14 52 22 l52 14 32 91 c18 50 36 107 39 127 7 34 5 37 -29 51 -36 15
-52 44 -44 83 3 16 21 19 202 25 109 4 201 10 204 13 4 3 33 5 66 3 56 -3 62
-5 83 -37z m571 23 c37 -8 87 -25 112 -37 40 -20 45 -26 48 -59 4 -43 -22
-104 -49 -119 -15 -7 -21 -6 -25 5 -10 25 -96 74 -160 90 -146 38 -314 1 -314
-67 0 -38 77 -94 247 -180 92 -47 180 -96 195 -110 132 -123 58 -379 -126
-428 -198 -54 -526 92 -526 233 0 27 45 128 58 128 4 0 14 -15 20 -34 25 -69
134 -146 257 -181 89 -26 210 -17 265 19 50 33 75 84 59 118 -15 34 -87 80
-225 142 -176 79 -241 122 -271 179 -17 33 -19 119 -4 158 22 60 101 125 181
150 44 13 189 10 258 -7z m960 -34 l22 -45 -127 -6 c-71 -4 -138 -7 -151 -8
-20 -1 -33 -21 -83 -126 -32 -69 -59 -129 -59 -134 0 -5 40 -6 90 -3 107 6
130 -6 130 -68 l0 -37 -117 -6 c-149 -8 -160 -11 -179 -56 -30 -70 -102 -297
-109 -344 -4 -26 -11 -50 -16 -53 -20 -12 -119 66 -119 94 0 8 30 89 67 180
49 122 64 167 54 170 -17 6 -51 39 -51 51 0 5 22 14 50 21 l50 12 40 125 c23
69 39 132 36 139 -3 8 -15 14 -26 14 -32 0 -72 45 -68 78 l3 27 188 7 c104 4
194 9 200 12 7 3 44 4 82 3 l70 -2 23 -45z m477 36 c143 -38 237 -126 270
-253 57 -217 -69 -491 -280 -608 -79 -44 -130 -56 -226 -56 -113 0 -192 38
-239 114 -18 28 -17 30 21 125 53 129 206 540 215 575 l7 29 -30 -15 c-46 -24
-112 -103 -142 -169 l-27 -60 -31 26 c-59 49 -51 114 23 196 42 46 74 65 154
91 67 22 213 25 285 5z m-4242 -37 c58 -30 59 -36 16 -100 -96 -139 -228 -565
-229 -731 0 -69 -13 -74 -64 -25 -47 45 -60 99 -46 190 30 193 145 530 224
655 28 44 33 45 99 11z m1318 -819 c9 -14 20 -35 24 -48 7 -23 6 -23 -52 -17
-33 4 -119 0 -202 -9 -79 -9 -175 -16 -213 -16 -60 0 -72 3 -93 25 -25 24 -30
41 -20 68 5 10 23 13 83 10 42 -2 127 0 187 5 61 5 146 9 189 8 72 -1 80 -3
97 -26z"/>
<path d="M2280 4657 c0 -8 -34 -81 -77 -163 l-76 -149 43 -3 c64 -5 180 24
241 61 115 69 141 178 56 241 -37 27 -187 38 -187 13z"/>
<path d="M7026 4691 c-3 -4 11 -16 32 -25 80 -37 80 -27 -1 -187 -128 -253
-226 -500 -213 -535 5 -14 19 -16 94 -12 117 5 181 36 278 132 110 109 164
237 164 386 0 114 -58 200 -157 236 -42 15 -189 19 -197 5z"/>
</g>
</svg>
